<?xml version="1.0" encoding="UTF-8"?>
<svg id="Layer_1" xmlns="http://www.w3.org/2000/svg" viewBox="0 0 1024 1024">
  <defs>
    <style>
      .cls-1 {
        fill: #4285f4;
      }

      .cls-2 {
        fill: #1a73e8;
      }

      .cls-3 {
        fill: #34a853;
      }

      .cls-4 {
        fill: #fbbc04;
      }

      .cls-5 {
        fill: #fff;
      }

      .cls-6 {
        fill: #ea4335;
      }

      .cls-7 {
        fill: #1967d2;
      }

      .cls-8 {
        fill: #188038;
      }
    </style>
  </defs>
  <rect x="87" y="87" width="850" height="850" rx="185.95" ry="185.95"/>
  <g>
    <path class="cls-5" d="M662.22,361.78l-135.2-15.02-165.25,15.02-15.02,150.22,15.02,150.22,150.22,18.78,150.22-18.78,15.02-153.98-15.02-146.47Z"/>
    <path class="cls-2" d="M423.41,594.85c-11.23-7.59-19-18.66-23.25-33.31l26.06-10.74c2.37,9.01,6.5,16,12.39,20.96,5.86,4.96,13,7.4,21.33,7.4s15.85-2.59,21.97-7.77c6.12-5.18,9.2-11.79,9.2-19.79s-3.23-14.87-9.69-20.05-14.57-7.77-24.26-7.77h-15.06v-25.8h13.52c8.34,0,15.36-2.25,21.07-6.76,5.71-4.51,8.56-10.67,8.56-18.52,0-6.98-2.55-12.54-7.66-16.71-5.11-4.17-11.57-6.27-19.42-6.27s-13.75,2.03-18.25,6.12c-4.51,4.09-7.77,9.12-9.84,15.06l-25.8-10.74c3.42-9.69,9.69-18.25,18.89-25.65,9.2-7.4,20.96-11.12,35.23-11.12,10.55,0,20.05,2.03,28.47,6.12,8.41,4.09,15.02,9.76,19.79,16.97,4.77,7.25,7.14,15.36,7.14,24.37s-2.21,16.97-6.65,23.36c-4.43,6.38-9.88,11.27-16.34,14.69v1.54c8.53,3.57,15.47,9.01,20.96,16.34,5.45,7.32,8.19,16.08,8.19,26.29s-2.59,19.34-7.77,27.34c-5.18,8-12.36,14.31-21.44,18.89-9.12,4.58-19.38,6.91-30.76,6.91-13.18.04-25.35-3.76-36.58-11.34Z"/>
    <path class="cls-2" d="M583.36,465.51l-28.47,20.69-14.31-21.71,51.34-37.03h19.68v174.67h-28.24v-136.63Z"/>
    <path class="cls-6" d="M662.22,797.42l135.2-135.2-67.6-30.04-67.6,30.04-30.04,67.6,30.04,67.6Z"/>
    <path class="cls-3" d="M331.73,729.82l30.04,67.6h300.45v-135.2h-300.45l-30.04,67.6Z"/>
    <path class="cls-1" d="M271.64,226.58c-24.9,0-45.07,20.17-45.07,45.07v390.58l67.6,30.04,67.6-30.04v-300.45h300.45l30.04-67.6-30.04-67.6h-390.58Z"/>
    <path class="cls-8" d="M226.58,662.22v90.13c0,24.9,20.17,45.07,45.07,45.07h90.13v-135.2h-135.2Z"/>
    <path class="cls-4" d="M662.22,361.78v300.45h135.2v-300.45l-67.6-30.04-67.6,30.04Z"/>
    <path class="cls-7" d="M797.42,361.78v-90.13c0-24.9-20.17-45.07-45.07-45.07h-90.13v135.2h135.2Z"/>
  </g>
</svg>