<?xml version="1.0" encoding="UTF-8"?>
<svg id="Layer_1" xmlns="http://www.w3.org/2000/svg" viewBox="0 0 1024 1024">
  <defs>
    <style>
      .cls-1 {
        fill: #0066da;
      }

      .cls-2 {
        fill: #2684fc;
      }

      .cls-3 {
        fill: #00832d;
      }

      .cls-4 {
        fill: #00ac47;
      }

      .cls-5 {
        fill: #e94235;
      }

      .cls-6 {
        fill: #ffba00;
      }
    </style>
  </defs>
  <rect x="87" y="87" width="850" height="850" rx="185.95" ry="185.95"/>
  <g>
    <path class="cls-3" d="M549.67,512l55.93,63.92,75.2,48.06,13.11-111.59-13.11-109.1-76.64,42.22-54.48,66.48Z"/>
    <path class="cls-1" d="M225.12,613.62v95.07c0,21.73,17.6,39.34,39.34,39.34h95.07l19.67-71.86-19.67-62.55-65.24-19.67-69.17,19.67Z"/>
    <path class="cls-5" d="M359.53,275.97l-134.41,134.41,69.17,19.67,65.24-19.67,19.34-61.7-19.34-72.71Z"/>
    <path class="cls-2" d="M359.53,410.38h-134.41v203.25h134.41v-203.25Z"/>
    <path class="cls-4" d="M766.68,332.88l-85.89,70.42v220.69l86.28,70.74c12.92,10.1,31.8.89,31.8-15.54v-331.1c0-16.62-19.31-25.73-32.19-15.21ZM549.67,512v101.62h-190.14v134.41h281.92c21.73,0,39.34-17.6,39.34-39.34v-84.71l-131.13-111.98Z"/>
    <path class="cls-6" d="M641.46,275.97h-281.92v134.41h190.14v101.62l131.13-108.64v-88.05c0-21.73-17.6-39.34-39.34-39.34Z"/>
  </g>
</svg>