<?xml version="1.0" encoding="UTF-8"?>
<svg id="Layer_1" xmlns="http://www.w3.org/2000/svg" xmlns:xlink="http://www.w3.org/1999/xlink" viewBox="0 0 1024 1024">
  <defs>
    <style>
      .cls-1 {
        fill: #7b83eb;
      }

      .cls-2 {
        opacity: .1;
      }

      .cls-2, .cls-3 {
        isolation: isolate;
      }

      .cls-3 {
        opacity: .2;
      }

      .cls-4 {
        fill: url(#linear-gradient);
      }

      .cls-5 {
        fill: #fff;
      }

      .cls-6 {
        fill: #5059c9;
      }
    </style>
    <linearGradient id="linear-gradient" x1="278.62" y1="-647.46" x2="468.15" y2="-319.21" gradientTransform="translate(0 995.33)" gradientUnits="userSpaceOnUse">
      <stop offset="0" stop-color="#5a62c3"/>
      <stop offset=".5" stop-color="#4d55bd"/>
      <stop offset="1" stop-color="#3940ab"/>
    </linearGradient>
  </defs>
  <rect x="87" y="87" width="850" height="850" rx="185.95" ry="185.95"/>
  <g>
    <path class="cls-6" d="M624.12,445.99h146.63c13.85,0,25.08,11.23,25.08,25.08h0v133.56c0,50.91-41.27,92.19-92.19,92.19h-.44c-50.91,0-92.19-41.26-92.2-92.17h0v-145.55c0-7.24,5.87-13.11,13.11-13.11h0Z"/>
    <circle class="cls-6" cx="723.22" cy="360.18" r="59.41"/>
    <circle class="cls-1" cx="538.4" cy="333.78" r="85.81"/>
    <path class="cls-1" d="M652.82,445.99h-242.03c-13.69.34-24.52,11.7-24.2,25.39v152.33c-1.91,82.14,63.08,150.31,145.22,152.32,82.14-2.01,147.13-70.18,145.22-152.32v-152.33c.32-13.69-10.51-25.05-24.2-25.39Z"/>
    <path class="cls-2" d="M545,445.99v213.47c-.07,9.79-6,18.58-15.05,22.31-2.88,1.22-5.98,1.85-9.11,1.85h-122.64c-1.72-4.36-3.3-8.71-4.62-13.2-4.62-15.15-6.98-30.9-7-46.73v-152.34c-.32-13.67,10.49-25.01,24.16-25.35h134.26Z"/>
    <path class="cls-3" d="M531.8,445.99v226.67c0,3.13-.63,6.23-1.85,9.11-3.73,9.05-12.52,14.98-22.31,15.05h-103.24c-2.24-4.36-4.36-8.71-6.2-13.2-1.85-4.49-3.3-8.71-4.62-13.2-4.62-15.15-6.98-30.9-7-46.73v-152.34c-.32-13.67,10.49-25.01,24.16-25.35h121.06Z"/>
    <path class="cls-3" d="M531.8,445.99v200.27c-.1,13.3-10.86,24.06-24.16,24.16h-114.06c-4.62-15.15-6.98-30.9-7-46.73v-152.34c-.32-13.67,10.49-25.01,24.16-25.35h121.06Z"/>
    <path class="cls-3" d="M518.6,445.99v200.27c-.1,13.3-10.86,24.06-24.16,24.16h-100.86c-4.62-15.15-6.98-30.9-7-46.73v-152.34c-.32-13.67,10.49-25.01,24.16-25.35h107.86Z"/>
    <path class="cls-2" d="M545,377.74v41.58c-2.24.13-4.36.26-6.6.26s-4.36-.13-6.6-.26c-4.46-.3-8.88-1-13.2-2.11-26.73-6.33-48.82-25.08-59.41-50.43-1.82-4.26-3.24-8.68-4.22-13.2h65.87c13.32.05,24.11,10.84,24.16,24.16Z"/>
    <path class="cls-3" d="M531.8,390.94v28.38c-4.46-.3-8.88-1-13.2-2.11-26.73-6.33-48.82-25.08-59.41-50.43h48.45c13.32.05,24.11,10.84,24.16,24.16Z"/>
    <path class="cls-3" d="M531.8,390.94v28.38c-4.46-.3-8.88-1-13.2-2.11-26.73-6.33-48.82-25.08-59.41-50.43h48.45c13.32.05,24.11,10.84,24.16,24.16Z"/>
    <path class="cls-3" d="M518.6,390.94v26.27c-26.73-6.33-48.82-25.08-59.41-50.43h35.25c13.32.05,24.11,10.84,24.16,24.16Z"/>
    <path class="cls-4" d="M252.37,366.78h242.03c13.36,0,24.2,10.83,24.2,24.2v242.03c0,13.36-10.83,24.2-24.2,24.2h-242.03c-13.36,0-24.2-10.83-24.2-24.2v-242.03c0-13.36,10.83-24.2,24.2-24.2Z"/>
    <path class="cls-5" d="M437.07,458.9h-48.38v131.75h-30.83v-131.75h-48.16v-25.56h127.37v25.56Z"/>
  </g>
</svg>