<?xml version="1.0" encoding="UTF-8"?>
<svg id="Layer_1" xmlns="http://www.w3.org/2000/svg" xmlns:xlink="http://www.w3.org/1999/xlink" viewBox="0 0 1024 1024">
  <defs>
    <style>
      .cls-1 {
        opacity: .1;
      }

      .cls-1, .cls-2, .cls-3, .cls-4 {
        isolation: isolate;
      }

      .cls-2 {
        opacity: .05;
      }

      .cls-3 {
        opacity: .2;
      }

      .cls-5 {
        fill: url(#linear-gradient-2);
      }

      .cls-6 {
        fill: url(#linear-gradient);
      }

      .cls-7 {
        fill: #0078d4;
      }

      .cls-8 {
        fill: #28a8ea;
      }

      .cls-9 {
        fill: #fff;
      }

      .cls-10 {
        fill: #0364b8;
      }

      .cls-4 {
        opacity: .5;
      }

      .cls-4, .cls-11 {
        fill: #0a2767;
      }

      .cls-12 {
        fill: #50d9ff;
      }

      .cls-13 {
        fill: #14447d;
      }

      .cls-14 {
        fill: #1490df;
      }
    </style>
    <linearGradient id="linear-gradient" x1="578.38" y1="-880.06" x2="578.38" y2="-627.82" gradientTransform="translate(0 1405.33)" gradientUnits="userSpaceOnUse">
      <stop offset="0" stop-color="#35b8f1"/>
      <stop offset="1" stop-color="#28a8ea"/>
    </linearGradient>
    <linearGradient id="linear-gradient-2" x1="277.31" y1="-1058.38" x2="467.9" y2="-728.29" gradientTransform="translate(0 1405.33)" gradientUnits="userSpaceOnUse">
      <stop offset="0" stop-color="#1784d9"/>
      <stop offset=".5" stop-color="#107ad5"/>
      <stop offset="1" stop-color="#0a63c9"/>
    </linearGradient>
  </defs>
  <rect x="87" y="87" width="850" height="850" rx="185.95" ry="185.95"/>
  <g>
    <path class="cls-11" d="M797.42,525.28c.03-4.46-2.28-8.62-6.08-10.95h-.07l-.24-.13-197.81-117.09c-.85-.58-1.74-1.1-2.66-1.58-7.64-3.94-16.71-3.94-24.35,0-.91.48-1.8,1-2.66,1.58l-197.8,117.09-.24.13c-6.05,3.76-7.9,11.71-4.14,17.75,1.11,1.78,2.63,3.27,4.44,4.32l197.81,117.09c.86.57,1.74,1.1,2.66,1.58,7.64,3.94,16.71,3.94,24.35,0,.91-.48,1.8-1.01,2.66-1.58l197.81-117.09c3.95-2.3,6.36-6.55,6.32-11.12Z"/>
    <path class="cls-10" d="M388.83,447.1h129.81v118.99h-129.81v-118.99ZM770.87,326.14v-54.43c.31-13.61-10.46-24.9-24.07-25.22h-336.85c-13.61.33-24.38,11.61-24.07,25.22v54.43l199.13,53.1,185.86-53.1Z"/>
    <path class="cls-7" d="M385.88,326.14h132.76v119.48h-132.76v-119.48Z"/>
    <path class="cls-8" d="M651.39,326.14h-132.76v119.48l132.76,119.48h119.48v-119.48l-119.48-119.48Z"/>
    <path class="cls-7" d="M518.64,445.62h132.76v119.48h-132.76v-119.48Z"/>
    <path class="cls-10" d="M518.64,565.1h132.76v119.48h-132.76v-119.48Z"/>
    <path class="cls-13" d="M388.83,566.08h129.81v108.17h-129.81v-108.17Z"/>
    <path class="cls-7" d="M651.39,565.1h119.48v119.48h-119.48v-119.48Z"/>
    <path class="cls-6" d="M791.34,535.67l-.25.13-197.81,111.25c-.86.53-1.74,1.04-2.66,1.49-3.36,1.6-7.01,2.5-10.73,2.66l-10.81-6.32c-.91-.46-1.8-.97-2.66-1.53l-200.46-114.41h-.09l-6.56-3.66v225.21c.1,15.03,12.36,27.12,27.39,27.03h383.74c.23,0,.42-.11.66-.11,3.17-.2,6.3-.86,9.29-1.94,1.29-.55,2.54-1.2,3.73-1.94.89-.5,2.42-1.61,2.42-1.61,6.8-5.03,10.83-12.98,10.86-21.44v-225.21c0,4.31-2.33,8.28-6.08,10.39Z"/>
    <path class="cls-4" d="M786.8,524.39v13.81l-206.83,142.41-214.13-151.57c0-.07-.06-.13-.13-.13h0l-19.65-11.82v-9.96l8.1-.13,17.13,9.82.4.13,1.46.93s201.26,114.83,201.79,115.1l7.7,4.51c.66-.27,1.33-.53,2.12-.8.4-.27,199.8-112.44,199.8-112.44l2.26.13Z"/>
    <path class="cls-14" d="M791.34,535.67l-.25.15-197.81,111.25c-.86.53-1.74,1.04-2.66,1.49-7.68,3.75-16.67,3.75-24.35,0-.91-.45-1.8-.95-2.66-1.49l-197.8-111.25-.24-.15c-3.82-2.07-6.21-6.05-6.25-10.39v225.21c.1,15.02,12.35,27.12,27.37,27.03h383.34c15.02.1,27.28-12.01,27.37-27.03h0v-225.21c0,4.31-2.33,8.28-6.08,10.39Z"/>
    <path class="cls-1" d="M596.17,645.42l-2.96,1.66c-.86.55-1.74,1.05-2.66,1.5-3.26,1.6-6.81,2.54-10.43,2.76l75.26,89,131.28,31.64c3.6-2.72,6.46-6.29,8.32-10.39l-198.81-116.16Z"/>
    <path class="cls-2" d="M609.57,637.88l-16.37,9.2c-.86.55-1.74,1.05-2.66,1.5-3.26,1.6-6.81,2.54-10.43,2.76l35.26,97.22,171.32,23.38c6.75-5.07,10.72-13.01,10.73-21.45v-2.91l-187.85-109.7Z"/>
    <path class="cls-8" d="M387.08,777.51h382.93c5.89.03,11.64-1.83,16.4-5.31l-217.32-127.3c-.91-.46-1.8-.97-2.66-1.53l-200.46-114.41h-.09l-6.54-3.69v224.44c-.01,15.34,12.41,27.78,27.75,27.8t0,0Z"/>
    <path class="cls-1" d="M545.19,377.03v283.17c-.02,9.93-6.06,18.85-15.27,22.57-2.85,1.23-5.92,1.86-9.03,1.86h-161.56v-318.65h26.55v-13.28h135.01c13.41.05,24.27,10.92,24.29,24.33Z"/>
    <path class="cls-3" d="M531.91,390.3v283.17c.03,3.21-.65,6.38-1.99,9.29-3.69,9.09-12.5,15.05-22.3,15.09h-148.29v-331.89h148.29c3.85-.04,7.65.92,11.02,2.79,8.14,4.1,13.27,12.43,13.28,21.55Z"/>
    <path class="cls-3" d="M531.91,390.3v256.62c-.06,13.41-10.89,24.27-24.29,24.39h-148.29v-305.34h148.29c3.85-.04,7.65.92,11.02,2.79,8.14,4.1,13.27,12.43,13.28,21.55Z"/>
    <path class="cls-3" d="M518.64,390.3v256.62c-.01,13.43-10.87,24.32-24.29,24.39h-135.01v-305.34h135.01c13.42,0,24.3,10.9,24.29,24.32,0,0,0,0,0,.01Z"/>
    <path class="cls-5" d="M250.91,365.97h243.39c13.44,0,24.33,10.89,24.33,24.33v243.39c0,13.44-10.89,24.33-24.33,24.33h-243.39c-13.44,0-24.33-10.89-24.33-24.33v-243.39c0-13.44,10.89-24.33,24.33-24.33Z"/>
    <path class="cls-9" d="M302.63,468.03c6-12.78,15.68-23.47,27.8-30.71,13.42-7.69,28.71-11.52,44.17-11.07,14.33-.31,28.47,3.32,40.88,10.5,11.66,6.96,21.06,17.15,27.04,29.34,6.52,13.43,9.76,28.22,9.48,43.15.32,15.6-3.03,31.06-9.76,45.14-6.13,12.63-15.82,23.18-27.88,30.36-12.88,7.4-27.55,11.13-42.4,10.78-14.64.35-29.09-3.32-41.78-10.62-11.76-6.96-21.28-17.17-27.4-29.39-6.56-13.24-9.84-27.86-9.58-42.63-.27-15.47,2.95-30.8,9.44-44.84ZM332.26,540.12c3.2,8.08,8.62,15.08,15.64,20.21,7.15,5,15.71,7.57,24.43,7.35,9.28.37,18.44-2.3,26.07-7.59,6.93-5.1,12.21-12.13,15.19-20.21,3.33-9.02,4.97-18.57,4.85-28.18.1-9.7-1.44-19.35-4.57-28.54-2.76-8.29-7.87-15.61-14.71-21.05-7.44-5.55-16.57-8.36-25.85-7.97-8.91-.23-17.66,2.37-25,7.42-7.14,5.14-12.66,12.21-15.93,20.38-7.25,18.72-7.29,39.47-.11,58.21v-.03Z"/>
    <path class="cls-12" d="M651.39,326.14h119.48v119.48h-119.48v-119.48Z"/>
  </g>
</svg>