<?xml version="1.0" encoding="UTF-8"?>
<svg id="Layer_1" xmlns="http://www.w3.org/2000/svg" viewBox="0 0 1024 1024">
  <defs>
    <style>
      .cls-1 {
        fill: #4285f4;
      }

      .cls-2 {
        fill: #34a853;
      }

      .cls-3 {
        fill: #fbbc04;
      }

      .cls-4 {
        fill: #ea4335;
      }

      .cls-5 {
        fill: #c5221f;
      }
    </style>
  </defs>
  <rect x="87" y="87" width="850" height="850" rx="185.95" ry="185.95"/>
  <g>
    <path class="cls-1" d="M265.56,726.07h90.8v-220.5l-129.71-97.28v278.87c0,21.53,17.45,38.91,38.91,38.91"/>
    <path class="cls-2" d="M667.65,726.07h90.8c21.53,0,38.91-17.45,38.91-38.91v-278.87l-129.71,97.28"/>
    <path class="cls-3" d="M667.65,336.95v168.62l129.71-97.28v-51.88c0-48.12-54.93-75.55-93.39-46.69"/>
    <path class="cls-4" d="M356.35,505.57v-168.62l155.65,116.74,155.65-116.74v168.62l-155.65,116.74"/>
    <path class="cls-5" d="M226.64,356.41v51.88l129.71,97.28v-168.62l-36.32-27.24c-38.52-28.86-93.39-1.43-93.39,46.69"/>
  </g>
</svg>